HIERARCHY
ROOT pelvis
{
  OFFSET 0 100 0
  CHANNELS 6 Xposition Yposition Zposition Zrotation Xrotation Yrotation
  JOINT pelvis_right_femur
  {
    OFFSET -10.78128 -3.44521 -0.5502486
    CHANNELS 3 Zrotation Xrotation Yrotation
    JOINT right_femur_tibia
    {
      OFFSET -0.8047443 -44.0398 -0.1307829
      CHANNELS 3 Zrotation Xrotation Yrotation
      JOINT right_tibia_foot
      {
        OFFSET 3.006224 -47.83518 -5
        CHANNELS 3 Zrotation Xrotation Yrotation
        End Site
        {
          OFFSET 0 -5 15
        }
      }
    }
  }
  JOINT pelvis_left_femur
  {
    OFFSET 10.78128 -3.44521 -0.5502486
    CHANNELS 3 Zrotation Xrotation Yrotation
    JOINT left_femur_tibia
    {
      OFFSET 0.8047443 -44.0398 -0.1307829
      CHANNELS 3 Zrotation Xrotation Yrotation
      JOINT left_tibia_foot
      {
        OFFSET -4.370144 -48.10324 -4.275266
        CHANNELS 3 Zrotation Xrotation Yrotation
        End Site
        {
          OFFSET 0 -5 15
        }
      }
    }
  }
  JOINT pelvis_spine1
  {
    OFFSET 0 6.468898 -3.129235
    CHANNELS 3 Zrotation Xrotation Yrotation
    JOINT spine1
    {
      OFFSET 0 23.15396 4.99043
      CHANNELS 3 Zrotation Xrotation Yrotation
      JOINT spine2
      {
        OFFSET 0 20.79997 -5.064912
        CHANNELS 3 Zrotation Xrotation Yrotation
        JOINT neck
        {
          OFFSET 0 14.38658 9.616178
          CHANNELS 3 Zrotation Xrotation Yrotation
          End Site
          {
            OFFSET 0 20 0
          }
        }
      }
      JOINT right_manubrium
      {
        OFFSET -5.722621 16.35077 3.967754
        CHANNELS 3 Zrotation Xrotation Yrotation
        JOINT right_clavicle
        {
          OFFSET -13.16364 1.694482 -4.693211
          CHANNELS 3 Zrotation Xrotation Yrotation
          JOINT right_humerus
          {
            OFFSET -28.5034 -0.3100689 -2.792744
            CHANNELS 3 Zrotation Xrotation Yrotation
            JOINT right_radius
            {
              OFFSET -25.15693 0.02248979 -1.271978
              CHANNELS 3 Zrotation Xrotation Yrotation
              End Site
              {
                OFFSET -15 0 0
              }
            }
          }
        }
      }
      JOINT left_manubrium
      {
        OFFSET 5.722621 16.35077 3.967754
        CHANNELS 3 Zrotation Xrotation Yrotation
        JOINT left_clavicle
        {
          OFFSET 13.16364 1.694482 -4.693211
          CHANNELS 3 Zrotation Xrotation Yrotation
          JOINT left_humerus
          {
            OFFSET 29.39168 -1.063119 -2.237045
            CHANNELS 3 Zrotation Xrotation Yrotation
            JOINT left_radius
            {
              OFFSET 24.59957 -0.9528479 0.9047498
              CHANNELS 3 Zrotation Xrotation Yrotation
              End Site
              {
                OFFSET 15 -0 -0
              }
            }
          }
        }
      }
    }
  }
}
MOTION
Frames: 13
Frame Time: 0.0416666666667
0 103.5113 0 2.218959 -1.136632 0.2843973 1.166062 -9.876515 8.650803 -0 33.64248 -0 -5.265823 -17.85486 -2.162434 -8.07089 10.01356 -23.40928 -0 5.427631 -0 7.596335 -16.07309 26.44303 -4.346814 -5.080738 4.990734 2.018316 9.19912 -7.725575 0.8410615 22.7991 7.164948 3.263264 -23.08885 8.785383 6.354824 -19.71942 11.56777 86.34218 35.9522 -19.81036 -0 0 16.20261 -7.592215 8.262209 4.627294 5.509533 -19.48207 -1.696222 -94.77046 29.74119 22.88006 0 0 -16.00328 3.48775 17.88469 9.562453
0.3527858 103.5274 1.455897 2.142063 -0.9278283 0.4984991 1.281639 -10.35762 8.423706 -0 31.9931 -0 -5.316911 -17.33555 -1.877625 -7.998726 9.979422 -23.12071 -0 6.068172 -0 7.300199 -16.13976 26.02191 -4.28732 -4.954887 4.995925 2.084069 9.147047 -7.71564 0.8679762 22.68964 7.164771 3.303924 -23.18316 8.770148 6.308518 -19.5959 11.55261 86.38975 35.94237 -19.88291 -0 0 16.01782 -7.662551 8.331518 4.671562 5.575593 -19.52206 -1.700013 -94.65711 29.68758 22.67645 0 0 -16.24978 3.51051 17.76168 9.552197
0.7237038 103.5292 3.080894 2.042225 -0.654953 0.6919177 1.422334 -10.88663 8.116509 -0 29.73513 -0 -5.395183 -16.65938 -1.485433 -7.904385 9.884748 -22.70673 -0 7.065474 -0 6.863354 -16.16083 25.41123 -4.197991 -4.796085 5.008427 2.164474 9.078856 -7.699108 0.8997987 22.54919 7.162123 3.355597 -23.29745 8.741012 6.243839 -19.42309 11.53319 86.46025 35.92902 -19.97713 -0 0 15.75777 -7.768394 8.433786 4.738478 5.651815 -19.57244 -1.704858 -94.50284 29.60378 22.41129 0 0 -16.56051 3.537121 17.58667 9.5427
1.114353 103.5219 4.919867 1.930416 -0.3378009 0.8680207 1.570374 -11.35478 7.747569 -0 26.99184 -0 -5.501723 -15.88497 -1.005602 -7.794978 9.704653 -22.17832 -0 8.43845 -0 6.292274 -16.09038 24.62524 -4.079058 -4.621134 5.030946 2.249236 9.00018 -7.674984 0.9317233 22.39123 7.155652 3.412992 -23.41633 8.694442 6.163576 -19.20824 11.51149 86.55277 35.91304 -20.08439 -0 0 15.43255 -7.910065 8.567869 4.828451 5.725404 -19.62774 -1.710252 -94.31682 29.48798 22.10746 0 0 -16.90228 3.56332 17.36517 9.537319
1.525618 103.5137 7.011999 1.815535 0.006789596 1.032323 1.712948 -11.6811 7.332014 -0 23.87207 -0 -5.636181 -15.06023 -0.455615 -7.675335 9.420477 -21.54724 -0 10.18658 -0 5.599468 -15.8954 23.68379 -3.932083 -4.44275 5.065618 2.330434 8.915819 -7.642447 0.9602143 22.22651 7.144281 3.471859 -23.52775 8.628199 6.070223 -18.95891 11.48925 86.66482 35.89495 -20.1963 -0 0 15.05295 -8.087568 8.73194 4.941662 5.787022 -19.68367 -1.715804 -94.10705 29.33947 21.78382 0 0 -17.24925 3.586032 17.10268 9.538274
1.958224 103.5136 9.390021 1.704653 0.3636847 1.191169 1.841362 -11.81014 6.882434 -0 20.47388 -0 -5.795997 -14.22389 0.1487303 -7.548347 9.016532 -20.82642 -0 12.28609 -0 4.804926 -15.55687 22.61466 -3.76061 -4.269338 5.114568 2.402307 8.830026 -7.600437 0.9830414 22.06337 7.127082 3.52891 -23.62241 8.541277 5.965991 -18.68392 11.4682 86.79081 35.87495 -20.30293 -0 0 14.63201 -8.301346 8.923433 5.078483 5.83094 -19.73704 -1.721129 -93.88049 29.15855 21.45557 0 0 -17.58282 3.603315 16.8048 9.546649
2.413311 103.529 12.07883 1.604199 0.7170987 1.350447 1.948755 -11.70067 6.409905 -0 16.89027 -0 -5.975511 -13.41013 0.7925521 -7.415763 8.472132 -20.02974 -0 14.69055 -0 3.936364 -15.06781 21.45527 -3.570846 -4.105388 5.181106 2.460351 8.747076 -7.546795 0.9990434 21.9089 7.102987 3.581473 -23.69195 8.433356 5.85283 -18.39455 11.45032 86.92009 35.85319 -20.38966 -0 0 14.18702 -8.553952 9.139288 5.240464 5.854503 -19.78523 -1.725593 -93.64321 28.94608 21.13558 0 0 -17.88984 3.613933 16.47708 9.562753
2.892991 103.5643 15.09341 1.521545 1.047859 1.514262 2.027538 -11.31186 5.925009 -0 13.21586 -0 -6.164872 -12.65421 1.461027 -7.278844 7.751879 -19.17161 -0 17.33236 -0 3.029134 -14.4306 20.25422 -3.372459 -3.951991 5.271163 2.500208 8.671954 -7.477239 1.007828 21.77035 7.070423 3.627072 -23.72675 8.304099 5.732447 -18.10596 11.43827 87.03452 35.83014 -20.43344 -0 0 13.74178 -8.852098 9.376242 5.431565 5.857443 -19.8256 -1.728019 -93.40058 28.70287 20.836 0 0 -18.16051 3.616832 16.12473 9.586577
3.40077 103.6189 18.4364 1.466101 1.331923 1.683659 2.06797 -10.59401 5.438625 -0 9.550847 -0 -6.349443 -11.99583 2.138814 -7.138331 6.800229 -18.2666 -0 20.12536 -0 2.124923 -13.65506 19.07102 -3.178859 -3.807392 5.394056 2.516931 8.610729 -7.384833 1.009523 21.65595 7.027113 3.663164 -23.7146 8.152696 5.606313 -17.83776 11.43556 87.10751 35.80677 -20.40098 -0 0 13.32764 -9.207766 9.630982 5.658849 5.841262 -19.8551 -1.72652 -93.15741 28.42926 20.56927 0 0 -18.38675 3.610783 15.75245 9.618123
3.941622 103.6869 22.09658 1.448893 1.542182 1.855786 2.059135 -9.491134 4.962209 -0 5.997407 -0 -6.510962 -11.47709 2.810364 -6.993546 5.547701 -17.32908 -0 22.97233 -0 1.267409 -12.75731 17.97033 -3.005917 -3.667894 5.561423 2.505168 8.570132 -7.260816 1.004618 21.57459 6.970311 3.687266 -23.64154 7.978002 5.475683 -17.61241 11.44618 87.10696 35.78432 -20.2522 -0 0 12.98072 -9.636663 9.900082 5.931632 5.808645 -19.8704 -1.718722 -92.91792 28.12529 20.34779 0 0 -18.56174 3.594408 15.36443 9.657443
4.521565 103.7582 26.04954 1.480416 1.653673 2.024032 1.991993 -7.955279 4.507486 -0 2.648757 -0 -6.630801 -11.13478 3.461269 -6.841334 3.929473 -16.37261 -0 25.77805 -0 0.4950518 -11.75838 17.01103 -2.868974 -3.529254 5.784214 2.460255 8.556276 -7.096876 0.9938451 21.53411 6.897511 3.697452 -23.49495 7.779274 5.341646 -17.45107 11.47371 87.0024 35.76355 -19.94931 -0 0 12.73521 -10.15389 10.17981 6.258956 5.762798 -19.86856 -1.702374 -92.6856 27.79126 20.18225 0 0 -18.68053 3.566556 14.96448 9.704457
5.146883 103.8208 30.26076 1.56804 1.64913 2.179149 1.862141 -5.963208 4.085809 0 -0.4216598 0 -6.693663 -10.99178 4.07981 -6.675983 1.906155 -15.4092 -0 28.46153 -0 -0.1652429 -10.6823 16.23557 -2.779747 -3.388159 6.06939 2.379439 8.573313 -6.887643 0.9781228 21.53938 6.807249 3.692865 -23.26699 7.557057 5.205246 -17.36928 11.52035 86.7727 35.74383 -19.46648 -0 0 12.61622 -10.76926 10.466 6.646792 5.706821 -19.84775 -1.676059 -92.46298 27.42848 20.07968 0 0 -18.74062 3.526648 14.55618 9.758805
5.823339 103.8626 34.6901 1.714367 1.521823 2.310861 1.670336 -3.526008 3.70767 0 -3.162435 0 -6.689604 -11.05183 4.657554 -6.490564 -0.5234788 -14.44908 -0 30.95998 -0 -0.7001175 -9.554622 15.66562 -2.744817 -3.243281 6.417958 2.262487 8.622795 -6.632161 0.9585245 21.59115 6.699638 3.673942 -22.95634 7.313798 5.067664 -17.37462 11.58637 86.41021 35.72253 -18.79521 -0 0 12.63612 -11.48491 10.75411 7.096464 5.643286 -19.80749 -1.639688 -92.2516 27.03961 20.04238 0 0 -18.74199 3.474653 14.14294 9.820012
